<?xml version="1.0" standalone="no"?><svg xmlns="http://www.w3.org/2000/svg" viewBox="0 0 1440 320"><path fill="#1da1f2" fill-opacity="1" d="M0,256L9.6,224C19.2,192,38,128,58,90.7C76.8,53,96,43,115,37.3C134.4,32,154,32,173,53.3C192,75,211,117,230,138.7C249.6,160,269,160,288,138.7C307.2,117,326,75,346,69.3C364.8,64,384,96,403,106.7C422.4,117,442,107,461,112C480,117,499,139,518,154.7C537.6,171,557,181,576,170.7C595.2,160,614,128,634,144C652.8,160,672,224,691,208C710.4,192,730,96,749,96C768,96,787,192,806,234.7C825.6,277,845,267,864,224C883.2,181,902,107,922,69.3C940.8,32,960,32,979,48C998.4,64,1018,96,1037,133.3C1056,171,1075,213,1094,234.7C1113.6,256,1133,256,1152,261.3C1171.2,267,1190,277,1210,256C1228.8,235,1248,181,1267,186.7C1286.4,192,1306,256,1325,234.7C1344,213,1363,107,1382,74.7C1401.6,43,1421,85,1430,106.7L1440,128L1440,320L1430.4,320C1420.8,320,1402,320,1382,320C1363.2,320,1344,320,1325,320C1305.6,320,1286,320,1267,320C1248,320,1229,320,1210,320C1190.4,320,1171,320,1152,320C1132.8,320,1114,320,1094,320C1075.2,320,1056,320,1037,320C1017.6,320,998,320,979,320C960,320,941,320,922,320C902.4,320,883,320,864,320C844.8,320,826,320,806,320C787.2,320,768,320,749,320C729.6,320,710,320,691,320C672,320,653,320,634,320C614.4,320,595,320,576,320C556.8,320,538,320,518,320C499.2,320,480,320,461,320C441.6,320,422,320,403,320C384,320,365,320,346,320C326.4,320,307,320,288,320C268.8,320,250,320,230,320C211.2,320,192,320,173,320C153.6,320,134,320,115,320C96,320,77,320,58,320C38.4,320,19,320,10,320L0,320Z"></path></svg>